<svg width="25" height="25" viewBox="0 0 25 25" fill="none" xmlns="http://www.w3.org/2000/svg">
<g id="ri:search-line">
<path id="Vector" d="M18.1189 16.9627L22.4019 21.2447L20.9869 22.6597L16.7049 18.3767C15.1116 19.6539 13.1299 20.3486 11.0879 20.3457C6.11989 20.3457 2.08789 16.3137 2.08789 11.3457C2.08789 6.3777 6.11989 2.3457 11.0879 2.3457C16.0559 2.3457 20.0879 6.3777 20.0879 11.3457C20.0908 13.3877 19.3961 15.3694 18.1189 16.9627ZM16.1129 16.2207C17.382 14.9156 18.0908 13.1661 18.0879 11.3457C18.0879 7.4777 14.9549 4.3457 11.0879 4.3457C7.21989 4.3457 4.08789 7.4777 4.08789 11.3457C4.08789 15.2127 7.21989 18.3457 11.0879 18.3457C12.9083 18.3486 14.6578 17.6398 15.9629 16.3707L16.1129 16.2207Z" fill="#F4F4F4"/>
</g>
</svg>
